Coordinates
version=1
nRows=9
nColumns=63
inDegrees=yes

Units are S.I. units (second, meters, Newtons, ...)
If the header above contains a line with 'inDegrees', this indicates whether rotational values are in degrees (yes) or radians (no).

endheader
time	pelvis_tilt	pelvis_list	pelvis_rotation	pelvis_tx	pelvis_ty	pelvis_tz	hip_flexion_r	hip_adduction_r	hip_rotation_r	knee_angle_r	knee_angle_r_beta	ankle_angle_r	subtalar_angle_r	mtp_angle_r	hip_flexion_l	hip_adduction_l	hip_rotation_l	knee_angle_l	knee_angle_l_beta	ankle_angle_l	subtalar_angle_l	mtp_angle_l	L5_S1_Flex_Ext	L5_S1_Lat_Bending	L5_S1_axial_rotation	L4_L5_Flex_Ext	L4_L5_Lat_Bending	L4_L5_axial_rotation	L3_L4_Flex_Ext	L3_L4_Lat_Bending	L3_L4_axial_rotation	L2_L3_Flex_Ext	L2_L3_Lat_Bending	L2_L3_axial_rotation	L1_L2_Flex_Ext	L1_L2_Lat_Bending	L1_L2_axial_rotation	L1_T12_Flex_Ext	L1_T12_Lat_Bending	L1_T12_axial_rotation	Abs_r3	Abs_r2	Abs_r1	Abs_t1	Abs_t2	neck_flexion	neck_bending	neck_rotation	arm_flex_r	arm_add_r	arm_rot_r	elbow_flex_r	pro_sup_r	wrist_flex_r	wrist_dev_r	arm_flex_l	arm_add_l	arm_rot_l	elbow_flex_l	pro_sup_l	wrist_flex_l	wrist_dev_l
1.627119	3.511115	-4.872030	95.603061	0.205364	0.805705	0.666024	16.063270	-1.577185	-8.199555	13.892052	0.242462	26.664661	10.083795	0.000000	17.034687	-1.824771	-6.598239	12.308918	0.214831	29.441172	8.861479	0.000000	0.088344	0.129109	-0.278669	0.164064	0.171714	-0.296086	0.145141	0.313915	-0.296086	0.100969	0.313915	-0.243836	0.082036	0.263278	-0.226419	0.050480	0.199989	-0.209002	0.631034	1.460502	-1.549876	0.000000	0.000000	26.497679	-0.171179	-20.608241	21.151270	-2.746739	89.910619	32.527551	86.535484	-14.989475	7.136328	11.489357	-4.994955	57.458768	43.576949	80.403357	-10.415455	0.387488
1.644068	3.602092	-4.902106	95.897976	0.205187	0.805817	0.666640	16.151401	-1.510602	-7.931971	13.906000	0.242705	26.574795	9.717908	0.000000	17.266935	-1.861453	-6.341864	12.496081	0.218098	29.407665	8.871358	0.000000	0.087134	0.135521	-0.326217	0.161817	0.180243	-0.346605	0.143152	0.329506	-0.346605	0.099585	0.329506	-0.285440	0.080913	0.276354	-0.265051	0.049788	0.209922	-0.244663	0.622389	1.533040	-1.814320	0.000000	0.000000	26.532763	-0.247910	-20.394817	21.922741	-2.469929	92.967844	32.129239	87.083708	-15.367821	7.637152	11.630269	-4.962265	57.683162	43.379862	80.166466	-10.310505	0.443158
1.661017	3.677181	-4.948827	96.147484	0.205047	0.805890	0.667175	16.252261	-1.465143	-7.736908	13.923206	0.243006	26.485864	9.432233	0.000000	17.489133	-1.883366	-6.081619	12.669896	0.221131	29.350883	8.821607	0.000000	0.086621	0.142403	-0.373767	0.160864	0.189396	-0.397127	0.142310	0.346239	-0.397127	0.098999	0.346239	-0.327046	0.080436	0.290388	-0.303686	0.049495	0.220582	-0.280325	0.618726	1.610893	-2.078779	0.000000	0.000000	26.581153	-0.347227	-20.112833	22.512838	-2.230218	95.283214	31.779569	87.580872	-15.704969	8.167246	11.734903	-4.937941	57.842898	43.193940	80.016891	-10.198474	0.516695
1.677966	3.732311	-5.017419	96.339102	0.204959	0.805924	0.667617	16.371582	-1.439068	-7.590440	13.942742	0.243347	26.399710	9.204028	0.000000	17.701091	-1.892881	-5.864781	12.818360	0.223723	29.288802	8.771055	0.000000	0.087042	0.149145	-0.420218	0.161647	0.198363	-0.446482	0.143002	0.362632	-0.446482	0.099481	0.362632	-0.367691	0.080828	0.304137	-0.341427	0.049736	0.231026	-0.315164	0.621735	1.687160	-2.337127	0.000000	0.000000	26.636096	-0.462777	-19.781295	22.889169	-2.028817	96.761232	31.485668	87.904915	-16.102369	8.612765	11.785744	-4.925527	57.893194	43.041262	79.952840	-10.144217	0.557608
1.694915	3.769210	-5.108049	96.479401	0.204911	0.805921	0.667954	16.504508	-1.436194	-7.535996	13.960015	0.243648	26.328479	9.082751	0.000000	17.901909	-1.889531	-5.683700	12.932925	0.225722	29.236128	8.732996	0.000000	0.088112	0.155909	-0.464779	0.163634	0.207359	-0.493828	0.144760	0.379078	-0.493828	0.100704	0.379078	-0.406682	0.081821	0.317930	-0.377633	0.050347	0.241503	-0.348585	0.629379	1.763676	-2.584964	0.000000	0.000000	26.694480	-0.589790	-19.432886	23.010615	-1.876925	97.264969	31.270778	88.049743	-16.613565	8.881582	11.763807	-4.918858	57.743323	42.952035	80.007397	-10.092462	0.585894
1.711864	3.787454	-5.217272	96.571400	0.204890	0.805880	0.668170	16.647180	-1.457759	-7.577317	13.978734	0.243975	26.284562	9.059474	0.000000	18.087345	-1.872758	-5.543628	13.008567	0.227042	29.208454	8.732976	0.000000	0.089673	0.162615	-0.506314	0.166531	0.216278	-0.537959	0.147323	0.395383	-0.537959	0.102487	0.395383	-0.443025	0.083270	0.331605	-0.411380	0.051239	0.251891	-0.379736	0.640524	1.839537	-2.815968	0.000000	0.000000	26.755274	-0.721445	-19.087969	22.882858	-1.785028	96.831790	31.139363	88.042334	-17.275849	8.884575	11.657172	-4.912944	57.359385	42.941119	80.191343	-10.049780	0.597949
1.728814	3.787853	-5.331042	96.622215	0.204891	0.805827	0.668255	16.776278	-1.498086	-7.685110	13.982864	0.244047	26.257820	9.097678	0.000000	18.240023	-1.837484	-5.401909	13.033893	0.227484	29.202148	8.726078	0.000000	0.089620	0.169023	-0.543218	0.166433	0.224800	-0.577170	0.147236	0.410962	-0.577170	0.102426	0.410962	-0.475316	0.083221	0.344671	-0.441365	0.051209	0.261816	-0.407414	0.640144	1.912021	-3.021218	0.000000	0.000000	26.831153	-0.837262	-18.769072	22.529272	-1.764432	95.546421	31.112965	87.734854	-18.054449	8.637360	11.483511	-4.910047	56.782962	43.002351	80.444697	-9.998038	0.560636
1.745763	3.772503	-5.463860	96.658207	0.204875	0.805733	0.668247	16.916729	-1.573219	-7.931044	13.996914	0.244292	26.271066	9.272860	0.000000	18.387906	-1.777638	-5.224839	13.020906	0.227258	29.220288	8.711026	0.000000	0.090792	0.175278	-0.581005	0.168609	0.233120	-0.617318	0.149161	0.426171	-0.617318	0.103766	0.426171	-0.508379	0.084309	0.357427	-0.472067	0.051878	0.271506	-0.435754	0.648515	1.982781	-3.231376	0.000000	0.000000	26.902357	-0.963915	-18.464951	22.029277	-1.803347	93.701161	31.136728	87.393496	-19.010651	8.043803	11.229855	-4.906173	55.975399	43.144653	80.836257	-9.926337	0.549448
1.762712	3.742356	-5.602767	96.687019	0.204846	0.805615	0.668169	17.055066	-1.678682	-8.305918	14.015412	0.244615	26.316668	9.581284	0.000000	18.524218	-1.704775	-5.087579	12.977730	0.226504	29.275055	8.788429	0.000000	0.090907	0.180678	-0.616353	0.168824	0.240301	-0.654875	0.149351	0.439300	-0.654875	0.103898	0.439300	-0.539309	0.084416	0.368438	-0.500787	0.051944	0.279870	-0.462265	0.649340	2.043863	-3.427971	0.000000	0.000000	26.970739	-1.102174	-18.206197	21.412745	-1.911746	91.380380	31.244107	86.786262	-20.028464	7.188223	10.945686	-4.907456	55.056511	43.346661	81.293854	-9.813838	0.579598
